<?xml version="1.0" encoding="utf-8"?>
<!-- Generator: Adobe Illustrator 16.0.0, SVG Export Plug-In . SVG Version: 6.00 Build 0)  -->
<!DOCTYPE svg PUBLIC "-//W3C//DTD SVG 1.1//EN" "http://www.w3.org/Graphics/SVG/1.1/DTD/svg11.dtd">
<svg version="1.1" id="Layer_1" xmlns="http://www.w3.org/2000/svg" xmlns:xlink="http://www.w3.org/1999/xlink" x="0px" y="0px"
	 width="56.69px" height="56.69px" viewBox="0 0 56.69 56.69" enable-background="new 0 0 56.69 56.69" xml:space="preserve">
<g>
	<circle fill="#F1F2F2" stroke="#FFFFFF" stroke-miterlimit="10" cx="28.598" cy="28.681" r="21.168"/>
	<path fill="#5E688C" d="M36.588,34.595l0.479-0.479l8.04,8.04c2.97-3.596,4.775-8.188,4.844-13.199H38.887v-0.677h11.062
		c-0.1-5.571-2.349-10.618-5.954-14.346l-8.01,8.01l-0.479-0.479l8.01-8.01c-3.741-3.63-8.816-5.892-14.42-5.98v11.339h-0.678V7.474
		c-5.565,0.087-10.61,2.319-14.344,5.907l8.021,8.021l-0.479,0.479l-8.021-8.022c-3.647,3.735-5.926,8.812-6.026,14.42h11.161v0.677
		H7.567c0.067,4.984,1.854,9.553,4.796,13.139l7.979-7.98l0.479,0.479l-8.02,8.02c3.886,4.44,9.593,7.245,15.955,7.245
		c6.336,0,12.021-2.781,15.906-7.188L36.588,34.595z"/>
</g>
<g display="none">
	<path display="inline" fill="#FFFFFF" d="M27.586,13.581c-7.77,0.588-13.891,7.079-13.891,14.998
		c0,8.308,6.735,15.042,15.043,15.042c8.309,0,15.043-6.734,15.043-15.042c0-7.918-6.121-14.409-13.891-14.998"/>
	<path display="inline" fill="#1B141C" d="M29.891,13.581v16.392h-2.305V13.581c-7.77,0.588-13.891,7.079-13.891,14.998
		c0,8.307,6.735,15.042,15.043,15.042c8.309,0,15.043-6.735,15.043-15.042C43.781,20.66,37.66,14.169,29.891,13.581z"/>
</g>
</svg>
